Coordinates
version=1
nRows=28
nColumns=38
inDegrees=no

Units are S.I. units (second, meters, Newtons, ...)
If the header above contains a line with 'inDegrees', this indicates whether rotational values are in degrees (yes) or radians (no).

endheader
time	pelvis_tilt	pelvis_list	pelvis_rotation	pelvis_tx	pelvis_ty	pelvis_tz	hip_flexion_r	hip_adduction_r	hip_rotation_r	knee_angle_r	ankle_angle_r	subtalar_angle_r	mtp_angle_r	hip_flexion_l	hip_adduction_l	hip_rotation_l	knee_angle_l	ankle_angle_l	subtalar_angle_l	mtp_angle_l	lumbar_extension	lumbar_bending	lumbar_rotation	arm_flex_r	arm_add_r	arm_rot_r	elbow_flex_r	pro_sup_r	wrist_flex_r	wrist_dev_r	arm_flex_l	arm_add_l	arm_rot_l	elbow_flex_l	pro_sup_l	wrist_flex_l	wrist_dev_l
5	2.62548	1.50374	2.26939	0.683406	0.339402	1.07341	0.0628631	-0.0148856	-0.0599883	0.21772	-0.251055	0	0	0.128049	-0.043745	-0.26938	0.394894	-0.28923	0	0	-0.25114	0.066745	0.345537	-0.632115	-0.369813	-0.15894	1.44337	1.30459	0	0	0.434888	-0.433057	1.31876	0.887952	1.5708	0	0
5.01	2.26776	1.50742	2.63897	0.690229	0.337777	1.07569	0.0219666	-0.0324858	-0.00704813	0.194165	-0.24249	0	0	0.0930514	-0.0148556	-0.246461	0.365417	-0.298612	0	0	-0.259225	0.0643945	0.344249	-0.655123	-0.372128	-0.175497	1.45598	1.29157	0	0	0.449832	-0.416454	1.35104	0.878351	1.5708	0	0
5.02	2.60348	1.50748	2.28793	0.684964	0.337309	1.07374	0.0576823	-0.015357	-0.0602324	0.219956	-0.248933	0	0	0.113194	-0.0393011	-0.256226	0.377294	-0.287473	0	0	-0.225621	0.0717854	0.394035	-0.675793	-0.348255	-0.198543	1.45127	1.28385	0	0	0.488277	-0.390055	1.42647	0.843861	1.5708	0	0
5.03	2.60186	1.50987	2.28726	0.685823	0.336296	1.07375	0.0551907	-0.0151071	-0.0614097	0.22088	-0.248507	0	0	0.105769	-0.0376329	-0.248926	0.369024	-0.284509	0	0	-0.21925	0.0734838	0.4073	-0.688227	-0.345321	-0.209206	1.45765	1.27834	0	0	0.500494	-0.38096	1.44855	0.839544	1.5708	0	0
5.04	2.61486	1.51182	2.27192	0.686668	0.33536	1.07355	0.0536396	-0.0142539	-0.0624927	0.221528	-0.247869	0	0	0.100506	-0.0369267	-0.244004	0.363842	-0.281969	0	0	-0.213725	0.0750746	0.417608	-0.69794	-0.344742	-0.217531	1.4644	1.27427	0	0	0.510011	-0.375181	1.46346	0.839742	1.5708	0	0
5.05	2.62552	1.51365	2.26095	0.687549	0.334365	1.07343	0.0510625	-0.013282	-0.0631146	0.221055	-0.247541	0	0	0.0953088	-0.0356189	-0.235311	0.357991	-0.27969	0	0	-0.207772	0.0740072	0.408983	-0.69174	-0.355959	-0.206573	1.46498	1.27423	0	0	0.506214	-0.386139	1.4524	0.85584	1.5708	0	0
5.06	2.63994	1.51687	2.24863	0.688521	0.333698	1.07343	0.0475026	-0.0112421	-0.0655542	0.220889	-0.247129	0	0	0.0902902	-0.0355629	-0.224896	0.353254	-0.276957	0	0	-0.197607	0.0749165	0.414701	-0.696865	-0.356482	-0.208636	1.46419	1.26655	0	0	0.523071	-0.379589	1.48287	0.853527	1.5708	0	0
5.07	2.68229	1.51885	2.20698	0.689153	0.332979	1.07329	0.0465669	-0.00846414	-0.0662169	0.221859	-0.24614	0	0	0.0874996	-0.0373503	-0.220785	0.350048	-0.272677	0	0	-0.178187	0.0755948	0.439287	-0.713365	-0.346177	-0.220697	1.45818	1.23852	0	0	0.561206	-0.353211	1.56409	0.830944	1.5708	0	0
5.08	2.73378	1.52	2.15552	0.689445	0.332288	1.07315	0.0464204	-0.00535666	-0.0654679	0.222126	-0.245952	0	0	0.0867575	-0.0404974	-0.222369	0.349654	-0.271453	0	0	-0.170496	0.0749131	0.441282	-0.711883	-0.348507	-0.218598	1.45586	1.23502	0	0	0.570016	-0.352118	1.5708	0.833208	1.5708	0	0
5.09	2.83429	1.51681	2.05493	0.689687	0.331328	1.07248	0.0511889	-0.0021125	-0.0636555	0.222127	-0.24602	0	0	0.0989579	-0.0511199	-0.247455	0.370741	-0.267897	0	0	-0.155486	0.0761178	0.428173	-0.700249	-0.361308	-0.201105	1.45064	1.2315	0	0	0.567455	-0.362342	1.5708	0.841067	1.5708	0	0
5.1	2.99419	1.51883	1.89315	0.690403	0.329972	1.0711	0.0505229	0.00647899	-0.0632761	0.220427	-0.245153	0	0	0.131521	-0.104666	-0.378015	0.476229	-0.25786	0	0	-0.146225	0.0847059	0.422398	-0.699065	-0.374442	-0.191147	1.45565	1.21815	0	0	0.567479	-0.369686	1.5708	0.852857	1.5708	0	0
5.11	3.02385	1.51855	1.86316	0.691002	0.329175	1.07101	0.0502523	0.00712736	-0.0645152	0.220145	-0.245145	0	0	0.132853	-0.110444	-0.39198	0.484224	-0.256563	0	0	-0.141095	0.0851085	0.417371	-0.694527	-0.38214	-0.185405	1.45754	1.2131	0	0	0.569562	-0.371684	1.5708	0.855036	1.5708	0	0
5.12	3.04689	1.51857	1.83939	0.6915	0.328451	1.07099	0.0497761	0.00773534	-0.0651932	0.220034	-0.245273	0	0	0.133002	-0.114168	-0.401182	0.489475	-0.255606	0	0	-0.137738	0.0847702	0.412278	-0.688968	-0.39115	-0.178234	1.45988	1.20621	0	0	0.572123	-0.37458	1.5708	0.858484	1.5708	0	0
5.13	3.06428	1.51904	1.8212	0.691926	0.327835	1.07097	0.0489894	0.00833511	-0.0653037	0.220186	-0.245331	0	0	0.132146	-0.116308	-0.406613	0.492105	-0.254574	0	0	-0.136092	0.0837658	0.407778	-0.682987	-0.400125	-0.171047	1.46255	1.19856	0	0	0.575797	-0.377774	1.5708	0.862869	1.5708	0	0
5.14	3.0869	1.51963	1.79839	0.692418	0.327238	1.07093	0.0478585	0.00923697	-0.0661884	0.219893	-0.245415	0	0	0.131233	-0.118011	-0.409747	0.493542	-0.253571	0	0	-0.135034	0.0828385	0.403213	-0.676729	-0.408014	-0.165103	1.46499	1.18996	0	0	0.580193	-0.380783	1.5708	0.867196	1.5708	0	0
5.15	3.09995	1.52049	1.78472	0.692845	0.32675	1.0709	0.0465458	0.00970027	-0.0662664	0.219706	-0.245462	0	0	0.129349	-0.119159	-0.412424	0.493739	-0.252753	0	0	-0.134847	0.0810874	0.399677	-0.669811	-0.41489	-0.159507	1.4666	1.18212	0	0	0.585803	-0.383087	1.5708	0.870879	1.5708	0	0
5.16	3.10685	1.52158	1.7774	0.693336	0.32628	1.07091	0.0450831	0.00978354	-0.0665359	0.219972	-0.245348	0	0	0.127073	-0.1197	-0.414324	0.493442	-0.252088	0	0	-0.134766	0.0791415	0.396321	-0.662584	-0.420797	-0.154189	1.46733	1.17448	0	0	0.591978	-0.384592	1.5708	0.873509	1.5708	0	0
5.17	3.1121	1.52289	1.77195	0.693875	0.32584	1.07096	0.0432366	0.00983393	-0.0666832	0.220098	-0.245087	0	0	0.124541	-0.119719	-0.414896	0.492622	-0.251371	0	0	-0.134644	0.0772263	0.393378	-0.655436	-0.426179	-0.149169	1.46805	1.16661	0	0	0.598861	-0.385173	1.5708	0.875273	1.5708	0	0
5.18	3.11811	1.52495	1.7657	0.694383	0.325403	1.07111	0.0405517	0.0100766	-0.0668946	0.220343	-0.244512	0	0	0.12094	-0.119611	-0.414418	0.491043	-0.250167	0	0	-0.135003	0.0751238	0.390772	-0.64773	-0.431945	-0.143783	1.46886	1.15503	0	0	0.606655	-0.385872	1.5708	0.877548	1.5708	0	0
5.19	3.11805	1.52863	1.76549	0.694861	0.325014	1.07141	0.0355367	0.0104736	-0.0666712	0.219253	-0.243504	0	0	0.114784	-0.118719	-0.411628	0.486985	-0.247465	0	0	-0.137184	0.0724055	0.388256	-0.638789	-0.439641	-0.137396	1.47007	1.11762	0	0	0.616146	-0.386872	1.5708	0.881254	1.5708	0	0
5.2	3.12849	1.53018	1.75427	0.695309	0.324605	1.07149	0.0333517	0.0109076	-0.065389	0.219139	-0.243098	0	0	0.111458	-0.118443	-0.41062	0.484782	-0.246258	0	0	-0.136031	0.0704155	0.389108	-0.632862	-0.441789	-0.138036	1.47021	1.11311	0	0	0.625834	-0.383594	1.5708	0.880035	1.5708	0	0
5.21	3.13843	1.53134	1.74323	0.695739	0.324216	1.07154	0.0317823	0.0111872	-0.0639142	0.219379	-0.242804	0	0	0.108426	-0.118017	-0.409922	0.482351	-0.245467	0	0	-0.134199	0.0679683	0.390205	-0.626238	-0.443625	-0.13875	1.46965	1.10929	0	0	0.635917	-0.380275	1.5708	0.878803	1.5708	0	0
5.22	-3.13057	1.53192	1.72787	0.696178	0.323813	1.07155	0.0308538	0.011441	-0.0627456	0.219682	-0.242656	0	0	0.106093	-0.117727	-0.409535	0.480171	-0.245244	0	0	-0.131412	0.0654712	0.390861	-0.618981	-0.445846	-0.13915	1.4687	1.10637	0	0	0.645863	-0.377263	1.5708	0.877633	1.5708	0	0
5.23	2.95363	1.52965	1.92857	0.696385	0.324079	1.0731	0.0316483	0.0019792	-0.06424	0.220863	-0.243754	0	0	0.0649844	-0.0525699	-0.248486	0.345316	-0.257803	0	0	-0.129863	0.0523575	0.387503	-0.60302	-0.444766	-0.136285	1.45962	1.10335	0	0	0.656274	-0.371555	1.5708	0.866474	1.5708	0	0
5.24	-3.1007	1.53337	1.69726	0.697305	0.323044	1.07155	0.0280164	0.0114726	-0.0657096	0.2186	-0.242579	0	0	0.101341	-0.116563	-0.406281	0.475519	-0.243045	0	0	-0.133929	0.0637372	0.385505	-0.602584	-0.454756	-0.141885	1.47557	1.09811	0	0	0.663835	-0.376475	1.5708	0.882091	1.5708	0	0
5.25	-3.08384	1.5332	1.67998	0.697856	0.322788	1.07144	0.0280955	0.0114739	-0.0660757	0.219	-0.242207	0	0	0.100724	-0.116499	-0.406078	0.47535	-0.241511	0	0	-0.137738	0.0650647	0.381357	-0.594451	-0.461221	-0.145254	1.48362	1.09645	0	0	0.671656	-0.376651	1.5708	0.884729	1.5708	0	0
5.26	-3.07496	1.53327	1.66914	0.69829	0.322394	1.07138	0.0278962	0.0111857	-0.0650583	0.219501	-0.241746	0	0	0.098573	-0.115912	-0.40708	0.473285	-0.240108	0	0	-0.142558	0.0656185	0.377319	-0.584595	-0.469135	-0.147125	1.49164	1.09356	0	0	0.679904	-0.378557	1.5708	0.889902	1.5708	0	0
5.27	-3.0664	1.53293	1.65744	0.69858	0.321903	1.07129	0.0280883	0.0109029	-0.0632629	0.219772	-0.24141	0	0	0.0962893	-0.115497	-0.409805	0.470658	-0.239026	0	0	-0.14706	0.0654054	0.373272	-0.572736	-0.478902	-0.145917	1.49844	1.08995	0	0	0.688576	-0.381836	1.5708	0.896738	1.56993	0	0
